HIERARCHY
ROOT Hips
{
	OFFSET -0.726467 86.094116 2.458319
	CHANNELS 6 Xposition Yposition Zposition Zrotation Yrotation Xrotation 
	JOINT Spine
	{
		OFFSET -0.000000 8.814246 -2.080107
		CHANNELS 3 Zrotation Yrotation Xrotation
		JOINT Spine1
		{
			OFFSET -0.000000 8.844141 -0.000000
			CHANNELS 3 Zrotation Yrotation Xrotation
			JOINT Spine2
			{
				OFFSET -0.000000 11.682268 -0.000000
				CHANNELS 3 Zrotation Yrotation Xrotation
				JOINT Spine3
				{
					OFFSET -0.000000 11.746700 0.000000
					CHANNELS 3 Zrotation Yrotation Xrotation
					JOINT Neck
					{
						OFFSET -0.000000 17.658264 -0.000000
						CHANNELS 3 Zrotation Yrotation Xrotation
						JOINT Neck1
						{
							OFFSET -0.000000 5.101515 0.000000
							CHANNELS 3 Zrotation Yrotation Xrotation
							JOINT Head
							{
								OFFSET -0.000000 5.101515 0.000000
								CHANNELS 3 Zrotation Yrotation Xrotation
								JOINT HeadEnd
								{
									OFFSET -0.000000 11.655085 0.000000
									CHANNELS 3 Zrotation Yrotation Xrotation
									End Site
									{
										OFFSET 0.000000 0.000000 0.000000
									}
								}
							}
						}
					}
					JOINT RightShoulder
					{
						OFFSET -2.625389 11.175210 -0.000000
						CHANNELS 3 Zrotation Yrotation Xrotation
						JOINT RightArm
						{
							OFFSET 0.000000 10.434715 -0.000000
							CHANNELS 3 Zrotation Yrotation Xrotation
							JOINT RightForeArm
							{
								OFFSET 0.000000 29.628420 -0.000000
								CHANNELS 3 Zrotation Yrotation Xrotation
								JOINT RightHand
								{
									OFFSET 0.000000 22.857611 0.000000
									CHANNELS 3 Zrotation Yrotation Xrotation
									JOINT RightHandThumb1
									{
										OFFSET -2.867323 3.959563 2.944291
										CHANNELS 3 Zrotation Yrotation Xrotation
										JOINT RightHandThumb2
										{
											OFFSET 0.000000 3.350399 0.000000
											CHANNELS 3 Zrotation Yrotation Xrotation
											JOINT RightHandThumb3
											{
												OFFSET -0.000000 3.756509 -0.000000
												CHANNELS 3 Zrotation Yrotation Xrotation
												JOINT RightHandThumb4
												{
													OFFSET 0.000000 3.147345 -0.000000
													CHANNELS 3 Zrotation Yrotation Xrotation
													End Site
													{
														OFFSET 0.000000 0.000000 0.000000
													}
												}
											}
										}
									}
									JOINT RightHandIndex1
									{
										OFFSET -0.086752 10.030893 2.345280
										CHANNELS 3 Zrotation Yrotation Xrotation
										JOINT RightHandIndex2
										{
											OFFSET 0.000000 4.061090 0.000000
											CHANNELS 3 Zrotation Yrotation Xrotation
											JOINT RightHandIndex3
											{
												OFFSET -0.000000 3.248873 -0.000000
												CHANNELS 3 Zrotation Yrotation Xrotation
												JOINT RightHandIndex4
												{
													OFFSET 0.000000 2.639709 -0.000000
													CHANNELS 3 Zrotation Yrotation Xrotation
													End Site
													{
														OFFSET 0.000000 0.000000 0.000000
													}
												}
											}
										}
									}
									JOINT RightHandMiddle1
									{
										OFFSET 0.104102 9.502952 0.006768
										CHANNELS 3 Zrotation Yrotation Xrotation
										JOINT RightHandMiddle2
										{
											OFFSET 0.000000 4.568727 0.000000
											CHANNELS 3 Zrotation Yrotation Xrotation
											JOINT RightHandMiddle3
											{
												OFFSET -0.000000 3.654981 -0.000000
												CHANNELS 3 Zrotation Yrotation Xrotation
												JOINT RightHandMiddle4
												{
													OFFSET 0.000000 2.741236 0.000000
													CHANNELS 3 Zrotation Yrotation Xrotation
													End Site
													{
														OFFSET 0.000000 0.000000 0.000000
													}
												}
											}
										}
									}
									JOINT RightHandRing1
									{
										OFFSET 0.086752 8.921708 -2.267442
										CHANNELS 3 Zrotation Yrotation Xrotation
										JOINT RightHandRing2
										{
											OFFSET 0.000000 4.061090 -0.000000
											CHANNELS 3 Zrotation Yrotation Xrotation
											JOINT RightHandRing3
											{
												OFFSET 0.000000 3.654981 0.000000
												CHANNELS 3 Zrotation Yrotation Xrotation
												JOINT RightHandRing4
												{
													OFFSET 0.000000 2.741236 -0.000000
													CHANNELS 3 Zrotation Yrotation Xrotation
													End Site
													{
														OFFSET 0.000000 0.000000 0.000000
													}
												}
											}
										}
									}
									JOINT RightHandPinky1
									{
										OFFSET -0.173504 7.976997 -4.467199
										CHANNELS 3 Zrotation Yrotation Xrotation
										JOINT RightHandPinky2
										{
											OFFSET 0.000000 3.350399 -0.000000
											CHANNELS 3 Zrotation Yrotation Xrotation
											JOINT RightHandPinky3
											{
												OFFSET -0.000000 2.842763 0.000000
												CHANNELS 3 Zrotation Yrotation Xrotation
												JOINT RightHandPinky4
												{
													OFFSET -0.000000 2.639709 -0.000000
													CHANNELS 3 Zrotation Yrotation Xrotation
													End Site
													{
														OFFSET 0.000000 0.000000 0.000000
													}
												}
											}
										}
									}
									JOINT RightForeArmEnd
									{
										OFFSET 0.000000 0.000000 0.000000
										CHANNELS 3 Zrotation Yrotation Xrotation
										End Site
										{
											OFFSET 0.000000 0.000000 0.000000
										}
									}
								}
								JOINT RightArmEnd
								{
									OFFSET 0.000000 0.000000 0.000000
									CHANNELS 3 Zrotation Yrotation Xrotation
									End Site
									{
										OFFSET 0.000000 0.000000 0.000000
									}
								}
							}
						}
					}
					JOINT LeftShoulder
					{
						OFFSET 2.625389 11.175210 -0.000000
						CHANNELS 3 Zrotation Yrotation Xrotation
						JOINT LeftArm
						{
							OFFSET -0.000000 10.813635 0.000000
							CHANNELS 3 Zrotation Yrotation Xrotation
							JOINT LeftForeArm
							{
								OFFSET -0.000000 28.724781 -0.000000
								CHANNELS 3 Zrotation Yrotation Xrotation
								JOINT LeftHand
								{
									OFFSET 0.644384 25.716167 -0.328871
									CHANNELS 3 Zrotation Yrotation Xrotation
									JOINT LeftHandThumb1
									{
										OFFSET 2.867323 3.959563 2.944291
										CHANNELS 3 Zrotation Yrotation Xrotation
										JOINT LeftHandThumb2
										{
											OFFSET -0.000000 3.350399 0.000000
											CHANNELS 3 Zrotation Yrotation Xrotation
											JOINT LeftHandThumb3
											{
												OFFSET 0.000000 3.756509 -0.000000
												CHANNELS 3 Zrotation Yrotation Xrotation
												JOINT LeftHandThumb4
												{
													OFFSET 0.000000 3.100000 -0.000000
													CHANNELS 3 Zrotation Yrotation Xrotation
													End Site
													{
														OFFSET 0.000000 0.000000 0.000000
													}
												}
											}
										}
									}
									JOINT LeftHandIndex1
									{
										OFFSET 0.086752 10.030893 2.345280
										CHANNELS 3 Zrotation Yrotation Xrotation
										JOINT LeftHandIndex2
										{
											OFFSET -0.000000 4.061090 -0.000000
											CHANNELS 3 Zrotation Yrotation Xrotation
											JOINT LeftHandIndex3
											{
												OFFSET -0.000000 3.248873 0.000000
												CHANNELS 3 Zrotation Yrotation Xrotation
												JOINT LeftHandIndex4
												{
													OFFSET -0.000000 2.639709 0.000000
													CHANNELS 3 Zrotation Yrotation Xrotation
													End Site
													{
														OFFSET 0.000000 0.000000 0.000000
													}
												}
											}
										}
									}
									JOINT LeftHandMiddle1
									{
										OFFSET -0.104102 9.502952 0.006768
										CHANNELS 3 Zrotation Yrotation Xrotation
										JOINT LeftHandMiddle2
										{
											OFFSET 0.000000 4.568727 -0.000000
											CHANNELS 3 Zrotation Yrotation Xrotation
											JOINT LeftHandMiddle3
											{
												OFFSET -0.000000 3.654981 0.000000
												CHANNELS 3 Zrotation Yrotation Xrotation
												JOINT LeftHandMiddle4
												{
													OFFSET -0.000000 2.741236 0.000000
													CHANNELS 3 Zrotation Yrotation Xrotation
													End Site
													{
														OFFSET 0.000000 0.000000 0.000000
													}
												}
											}
										}
									}
									JOINT LeftHandRing1
									{
										OFFSET -0.086752 8.921708 -2.267442
										CHANNELS 3 Zrotation Yrotation Xrotation
										JOINT LeftHandRing2
										{
											OFFSET -0.000000 4.061090 -0.000000
											CHANNELS 3 Zrotation Yrotation Xrotation
											JOINT LeftHandRing3
											{
												OFFSET 0.000000 3.654981 -0.000000
												CHANNELS 3 Zrotation Yrotation Xrotation
												JOINT LeftHandRing4
												{
													OFFSET 0.000000 2.741236 -0.000000
													CHANNELS 3 Zrotation Yrotation Xrotation
													End Site
													{
														OFFSET 0.000000 0.000000 0.000000
													}
												}
											}
										}
									}
									JOINT LeftHandPinky1
									{
										OFFSET 0.173504 7.976997 -4.467199
										CHANNELS 3 Zrotation Yrotation Xrotation
										JOINT LeftHandPinky2
										{
											OFFSET 0.000000 3.350399 -0.000000
											CHANNELS 3 Zrotation Yrotation Xrotation
											JOINT LeftHandPinky3
											{
												OFFSET -0.000000 2.842763 0.000000
												CHANNELS 3 Zrotation Yrotation Xrotation
												JOINT LeftHandPinky4
												{
													OFFSET -0.000000 2.639709 -0.000000
													CHANNELS 3 Zrotation Yrotation Xrotation
													End Site
													{
														OFFSET 0.000000 0.000000 0.000000
													}
												}
											}
										}
									}
									JOINT LeftForeArmEnd
									{
										OFFSET 0.000000 0.000000 0.000000
										CHANNELS 3 Zrotation Yrotation Xrotation
										End Site
										{
											OFFSET 0.000000 0.000000 0.000000
										}
									}
								}
								JOINT LeftArmEnd
								{
									OFFSET 0.000000 0.000000 0.000000
									CHANNELS 3 Zrotation Yrotation Xrotation
									End Site
									{
										OFFSET 0.000000 0.000000 0.000000
									}
								}
							}
						}
					}
				}
			}
		}
	}
	JOINT RightUpLeg
	{
		OFFSET -11.289943 0.000000 0.000000
		CHANNELS 3 Zrotation Yrotation Xrotation
		JOINT RightLeg
		{
			OFFSET 0.000000 -38.200325 0.000000
			CHANNELS 3 Zrotation Yrotation Xrotation
			JOINT RightFoot
			{
				OFFSET -0.000000 -39.900856 -0.000000
				CHANNELS 3 Zrotation Yrotation Xrotation
				JOINT RightToeBase
				{
					OFFSET 0.000000 0.000000 15.261641
					CHANNELS 3 Zrotation Yrotation Xrotation
					JOINT RightToeBaseEnd
					{
						OFFSET -0.000000 -0.000000 7.370709
						CHANNELS 3 Zrotation Yrotation Xrotation
						End Site
						{
							OFFSET 0.000000 0.000000 0.000000
						}
					}
				}
				JOINT RightLegEnd
				{
					OFFSET 0.000000 0.000000 0.000000
					CHANNELS 3 Zrotation Yrotation Xrotation
					End Site
					{
						OFFSET 0.000000 0.000000 0.000000
					}
				}
			}
			JOINT RightUpLegEnd
			{
				OFFSET 0.000000 0.000000 0.000000
				CHANNELS 3 Zrotation Yrotation Xrotation
				End Site
				{
					OFFSET 0.000000 0.000000 0.000000
				}
			}
		}
	}
	JOINT LeftUpLeg
	{
		OFFSET 11.315661 0.000000 -0.000000
		CHANNELS 3 Zrotation Yrotation Xrotation
		JOINT LeftLeg
		{
			OFFSET 0.000000 -38.200325 -0.000000
			CHANNELS 3 Zrotation Yrotation Xrotation
			JOINT LeftFoot
			{
				OFFSET 0.000000 -39.900856 0.000000
				CHANNELS 3 Zrotation Yrotation Xrotation
				JOINT LeftToeBase
				{
					OFFSET 0.000000 -0.000000 15.261641
					CHANNELS 3 Zrotation Yrotation Xrotation
					JOINT LeftToeBaseEnd
					{
						OFFSET 0.000000 0.000000 7.539996
						CHANNELS 3 Zrotation Yrotation Xrotation
						End Site
						{
							OFFSET 0.000000 0.000000 0.000000
						}
					}
				}
				JOINT LeftLegEnd
				{
					OFFSET 0.000000 0.000000 0.000000
					CHANNELS 3 Zrotation Yrotation Xrotation
					End Site
					{
						OFFSET 0.000000 0.000000 0.000000
					}
				}
			}
			JOINT LeftUpLegEnd
			{
				OFFSET 0.000000 0.000000 0.000000
				CHANNELS 3 Zrotation Yrotation Xrotation
				End Site
				{
					OFFSET 0.000000 0.000000 0.000000
				}
			}
		}
	}
}
MOTION
Frames: 4
Frame Time: 0.016667
-0.726467 86.094116 2.458319 0.697220 0.050164 -4.115038 -1.611020 0.159243 2.793886 -2.420402 0.923647 3.545566 1.865655 0.325426 4.404910 1.721636 0.341760 0.368395 -5.247568 -1.410224 4.708095 4.181181 -0.731303 -10.822804 0.416846 -3.749492 -24.496868 0.000000 0.000000 0.000000 91.507637 -0.136204 4.460175 68.862198 -26.242502 -7.178619 0.432669 9.097328 37.490204 -16.306744 14.763668 -13.652289 18.137814 -2.066986 36.797237 0.000000 0.000000 -43.919994 0.000000 0.000000 -30.500000 0.000000 0.000000 0.000000 48.339630 16.059713 -19.679314 36.127151 2.378605 -10.330325 36.155807 3.186174 -9.739853 0.000000 0.000000 0.000000 53.628094 6.737154 -15.825732 38.622334 0.537953 -4.386720 38.632462 1.319182 -3.762391 0.000000 0.000000 0.000000 63.864429 -8.916574 -7.871126 43.438923 -0.480623 6.221310 43.467903 -1.932560 4.845513 0.000000 0.000000 0.000000 65.682602 -25.993059 1.420813 42.273277 -3.237140 18.544205 42.495754 -6.192239 15.838936 0.000000 0.000000 0.000000 0.000000 0.000000 0.000000 0.000000 0.000000 0.000000 -91.280815 0.123410 4.215776 -68.143044 30.548340 -6.924268 -5.008564 -21.273729 49.813923 -0.740647 -4.904542 -19.385849 -16.637400 2.084625 37.370117 0.000000 0.000001 -40.320000 0.000000 0.000000 -28.000000 0.000000 0.000000 0.000000 -46.780689 16.763063 -9.860199 -29.434412 1.262313 8.596187 -29.448988 2.133174 8.104438 0.000000 0.000000 0.000000 -45.967453 6.912314 -9.122982 -31.210783 0.017183 3.640679 -31.214800 0.872438 3.122450 0.000000 0.000000 0.000000 -48.424347 -8.960072 -5.443507 -34.200459 0.435666 -5.082530 -34.208145 -1.218464 -3.958251 0.000000 0.000000 0.000000 -50.506653 -25.993116 -1.415079 -32.835598 -0.400531 -14.854526 -32.914494 -3.760359 -12.682167 0.000000 0.000000 0.000000 0.000000 0.000000 0.000000 0.000000 0.000000 0.000000 -5.959748 5.044161 -7.373058 -0.385849 -0.753747 27.014761 -0.712697 -2.221114 12.229920 -0.135308 -1.289731 -32.223724 0.000000 0.000000 0.000000 0.000000 0.000000 0.000000 0.000000 0.000000 0.000000 -4.857602 -4.562266 -2.434762 0.239464 0.484800 26.287207 6.170369 12.018026 10.501754 -0.117777 1.001812 -30.240299 0.000000 0.000000 0.000000 0.000000 0.000000 0.000000 0.000000 0.000000 0.000000 
-0.517976 85.766991 2.291009 0.532560 0.314451 -7.753985 -1.189610 0.246277 5.828467 -3.212332 1.038052 5.751815 1.909586 0.098363 4.396773 1.238819 0.376947 -0.401580 -5.042090 0.652333 2.257853 3.737754 2.270422 -10.812255 -0.116126 -3.215105 -20.787312 0.000000 0.000000 0.000000 91.773750 0.006574 3.711399 69.253975 -27.524433 -2.600099 1.078822 14.042078 33.423664 -15.618875 13.676682 -13.415643 18.418900 -2.075658 36.676926 0.000003 0.000018 -44.626381 -0.000001 0.000021 -31.230349 -0.000011 -0.000009 -0.000014 47.956753 16.798670 -19.643787 35.015644 2.045024 -10.890664 35.374531 2.904972 -9.924467 -0.000010 -0.000021 -0.000028 52.487736 6.794650 -15.445414 37.070370 0.260230 -4.463537 37.198261 1.031186 -3.725929 0.000041 0.000117 0.000015 60.633636 -8.814933 -6.970336 41.495480 -0.097377 6.174690 41.449245 -1.461026 4.736753 0.000002 -0.001360 -0.000005 61.247669 -25.643349 0.359479 38.941578 -1.923957 17.753553 39.044250 -4.841510 14.844533 -0.000049 -0.000004 0.000040 0.000000 0.000000 0.000000 0.000000 0.000000 0.000000 -92.676476 -0.065233 4.302601 -67.471603 29.028053 -4.484857 -4.187889 -21.876968 45.435390 -1.366987 -5.886159 -17.775122 -15.885507 1.992938 37.813480 -0.000005 0.000014 -38.229607 0.000005 -0.000003 -26.453478 -0.000633 -0.000018 0.001878 -44.011078 17.294685 -7.184523 -27.937555 1.093111 9.342223 -28.157181 1.987261 8.531565 0.000023 0.000476 0.000020 -43.086903 7.090333 -6.501016 -29.452980 -0.149004 3.791231 -29.234455 0.666144 3.170448 0.000180 -0.000058 0.000168 -45.401756 -9.069252 -4.049758 -32.393028 0.617536 -5.138168 -32.310574 -0.927628 -3.888752 0.000206 0.000005 0.000001 -45.368652 -25.661757 -3.584423 -30.598921 0.402394 -14.377268 -30.538584 -2.829797 -11.773874 0.000227 -0.000012 -0.000026 0.000000 0.000000 0.000000 0.000000 0.000000 0.000000 -5.726565 2.818735 -4.802630 -0.319967 -0.521707 28.120102 -1.321203 -2.209415 16.021841 -0.051283 -1.057342 -30.411497 0.000000 0.000000 0.000000 0.000000 0.000000 0.000000 0.000000 0.000000 0.000000 -5.288312 -2.415988 1.038323 0.153159 0.239470 25.132057 5.636286 11.066163 10.245201 -0.437532 0.772339 -30.086674 0.000000 0.000000 0.000000 0.000000 0.000000 0.000000 0.000000 0.000000 0.000000 
-0.306554 85.715622 2.272339 0.645902 0.476576 -7.835074 -1.446560 0.318251 5.866313 -3.282259 1.071409 5.779823 1.934468 -0.003338 4.474512 1.382544 0.310740 -0.336081 -5.305650 0.764262 2.583275 3.779806 2.241377 -10.707391 -0.159483 -3.269043 -20.877054 0.000000 0.000000 0.000000 91.849197 0.020878 3.678562 69.329048 -27.085073 -2.478209 1.109058 14.201405 33.755283 -15.700104 13.619997 -13.508863 18.137785 -2.076578 36.786991 0.000008 0.000020 -43.994202 -0.000002 0.000021 -30.774330 0.000001 -0.000005 -0.000015 47.018539 16.775747 -19.656773 34.440155 1.961055 -10.659063 34.828941 2.824534 -9.725085 -0.000002 -0.000010 -0.000020 51.590343 6.790676 -15.530708 36.512722 0.230667 -4.373713 36.639645 1.004307 -3.650878 0.000038 0.000102 0.000011 59.842079 -8.799447 -7.230335 40.953964 -0.045508 6.051655 40.918175 -1.422556 4.644775 0.000000 -0.001592 -0.000007 60.598072 -25.569395 -0.019057 38.561455 -1.765649 17.401045 38.625565 -4.704361 14.550340 0.000009 0.000004 0.000033 0.000000 0.000000 0.000000 0.000000 0.000000 0.000000 -92.684944 -0.080139 4.395618 -67.512840 29.138746 -4.581939 -4.199362 -21.312431 45.291332 -0.904157 -5.180898 -18.001465 -15.772016 1.994846 37.846275 -0.000003 0.000014 -37.999073 -0.000024 0.000000 -26.290504 -0.000639 -0.000010 0.002203 -43.746532 17.198618 -7.632202 -27.603415 1.036021 9.141857 -27.853872 1.930694 8.348955 0.000040 0.000233 0.000019 -42.773674 7.056061 -6.961147 -29.116989 -0.169572 3.708754 -28.917780 0.647827 3.104951 0.000268 -0.000063 0.000104 -45.176666 -9.024128 -4.402878 -32.166382 0.649073 -5.030429 -32.079506 -0.903233 -3.808950 0.000320 0.000008 0.000004 -45.239113 -25.572346 -3.786430 -30.498371 0.490997 -14.070422 -30.409325 -2.753653 -11.530520 0.000173 0.000005 -0.000038 0.000000 0.000000 0.000000 0.000000 0.000000 0.000000 -6.007084 2.797748 -5.042970 -0.317443 -0.523527 28.638081 -1.116434 -2.400624 15.831379 -0.030072 -1.088070 -30.502321 0.000000 0.000000 0.000000 0.000000 0.000000 0.000000 0.000000 0.000000 0.000000 -5.475889 -2.192154 1.368772 0.154306 0.245825 24.372427 5.877704 10.788823 10.373260 -0.412390 0.785516 -30.065189 0.000000 0.000000 0.000000 0.000000 0.000000 0.000000 0.000000 0.000000 0.000000 
-0.120968 85.671097 2.267251 0.720664 0.584620 -7.923470 -1.666429 0.372221 5.906401 -3.383771 1.118588 5.796916 1.987047 -0.092185 4.547079 1.510377 0.251014 -0.213208 -5.525294 0.893063 2.820922 3.829594 2.235460 -10.613964 -0.201559 -3.300639 -20.965324 0.000000 0.000000 0.000000 91.862930 0.037985 3.701082 69.399727 -26.905941 -2.208857 1.130265 14.245301 33.631756 -15.836433 13.817820 -13.421165 17.872711 -2.078616 36.895443 0.000009 0.000018 -43.380222 -0.000002 0.000023 -30.326817 0.000001 -0.000005 -0.000014 46.067047 16.754217 -19.711720 33.856125 1.897764 -10.487195 34.267548 2.764421 -9.576499 -0.000003 -0.000012 -0.000018 50.690582 6.787336 -15.656385 35.943756 0.207856 -4.306051 36.064045 0.984104 -3.595256 0.000036 0.000095 0.000013 59.030460 -8.786333 -7.483130 40.393253 -0.004564 5.959186 40.367695 -1.392942 4.576239 0.000003 -0.001730 -0.000006 59.875320 -25.497604 -0.352264 38.133823 -1.645509 17.134258 38.166363 -4.600515 14.331524 0.000024 0.000004 0.000021 0.000000 0.000000 0.000000 0.000000 0.000000 0.000000 -92.550713 -0.082795 4.557474 -67.576118 29.705751 -4.493771 -4.215929 -20.821136 45.088451 -0.661161 -4.349920 -18.062986 -15.685218 1.998214 37.865448 -0.000005 0.000014 -37.840870 -0.000040 -0.000001 -26.173742 -0.000535 -0.000011 0.002144 -43.569542 17.133432 -8.028574 -27.418779 0.993929 8.980766 -27.691385 1.888194 8.205465 0.000041 0.000164 0.000022 -42.582912 7.027770 -7.381187 -28.933605 -0.184276 3.642800 -28.752787 0.633848 3.052726 0.000310 -0.000067 0.000067 -45.135639 -8.974454 -4.705633 -32.101128 0.669692 -4.948806 -32.010681 -0.885255 -3.747631 0.000342 0.000008 0.000004 -45.318806 -25.447784 -3.955850 -30.556297 0.552769 -13.841357 -30.446625 -2.696110 -11.347415 0.000189 0.000004 -0.000037 0.000000 0.000000 0.000000 0.000000 0.000000 0.000000 -6.241643 2.756432 -5.209850 -0.316257 -0.517656 29.101761 -0.960180 -2.606449 15.662180 -0.011926 -1.111133 -30.563318 0.000000 0.000000 0.000000 0.000000 0.000000 0.000000 0.000000 0.000000 0.000000 -5.584013 -1.983042 1.542791 0.155122 0.249811 23.878420 6.124147 10.549044 10.454598 -0.385787 0.806401 -30.016006 0.000000 0.000000 0.000000 0.000000 0.000000 0.000000 0.000000 0.000000 0.000000 
